<?xml version="1.0" encoding="utf-8"?>
<!-- Generator: Adobe Illustrator 27.4.0, SVG Export Plug-In . SVG Version: 6.00 Build 0)  -->
<svg version="1.1" id="Layer_1" xmlns="http://www.w3.org/2000/svg" xmlns:xlink="http://www.w3.org/1999/xlink" x="0px" y="0px"
	 viewBox="0 0 66.3 97.3" style="enable-background:new 0 0 66.3 97.3;" xml:space="preserve">
<style type="text/css">
	.st0{fill:#FFFFFF;}
	.st1{fill:url(#SVGID_1_);}
	.st2{fill:url(#SVGID_00000043456802653343135560000003973517431572104100_);}
	.st3{fill:url(#SVGID_00000180366677638087682120000010768159348079433362_);}
	.st4{fill:url(#SVGID_00000163063856754207130370000000059910171336074413_);}
	.st5{fill:url(#SVGID_00000116195310603397850900000008324969955689847485_);}
	.st6{fill:url(#SVGID_00000023248842436734830070000010885495988147792559_);}
	.st7{fill:url(#SVGID_00000042704214971872387240000009247715773510499230_);}
	.st8{fill:url(#SVGID_00000121993253467525656690000008221493257730209962_);}
	.st9{fill:url(#SVGID_00000009587017041945553160000006265623157032646314_);}
	.st10{fill:url(#SVGID_00000106866203270216615910000017007631046676789681_);}
	.st11{fill:url(#SVGID_00000042700802712010114950000014732971397357483928_);}
	.st12{fill:url(#SVGID_00000041269923631625448140000013019218714536970882_);}
	.st13{fill:url(#SVGID_00000062897329234025866390000004297402773368202636_);}
	.st14{fill:url(#SVGID_00000178895806643573697230000007382349384974137271_);}
	.st15{fill:#2D2766;}
	.st16{fill:url(#SVGID_00000106121755141069749540000009050017186325700245_);}
	.st17{fill:url(#SVGID_00000012462415009328790630000004621970477410382772_);}
	.st18{fill:url(#SVGID_00000042719594276022035410000012067399500295628956_);}
	.st19{fill:url(#SVGID_00000098195588479814815950000005681392367369405372_);}
	.st20{fill:url(#SVGID_00000011033010899060384090000006206629128198082206_);}
	.st21{fill:url(#SVGID_00000057867936857035146680000002391097088882132150_);}
	.st22{fill:url(#SVGID_00000055701755325773762850000017712650067966421679_);}
</style>
<g>
	<g>
		<g>
			<linearGradient id="SVGID_1_" gradientUnits="userSpaceOnUse" x1="47.2085" y1="15.8046" x2="47.2085" y2="84.8486">
				<stop  offset="0" style="stop-color:#00ABAF"/>
				<stop  offset="0.2353" style="stop-color:#0094B5"/>
				<stop  offset="0.4756" style="stop-color:#0080BA"/>
				<stop  offset="1" style="stop-color:#774896"/>
			</linearGradient>
			<path class="st1" d="M35.7,47.9c-0.5,0.3-0.8,0.9-0.8,1.4v14.6c0,1,0.8,1.8,1.8,1.8c1,0,1.8-0.8,1.8-1.8V50.2l15.5-10.8
				c0.5,0.3,1.1,0.4,1.8,0.4c2.1,0,3.8-1.7,3.8-3.8c0-2.1-1.7-3.8-3.8-3.8c-2.1,0-3.8,1.7-3.8,3.8c0,0.2,0,0.3,0,0.5L35.7,47.9z"/>
			
				<linearGradient id="SVGID_00000181773836827082411020000003160538870385750445_" gradientUnits="userSpaceOnUse" x1="37.2569" y1="15.8046" x2="37.2569" y2="84.8487">
				<stop  offset="0" style="stop-color:#00ABAF"/>
				<stop  offset="0.2353" style="stop-color:#0094B5"/>
				<stop  offset="0.4756" style="stop-color:#0080BA"/>
				<stop  offset="1" style="stop-color:#774896"/>
			</linearGradient>
			<path style="fill:url(#SVGID_00000181773836827082411020000003160538870385750445_);" d="M24.7,44v14.5c-1.2,0.6-2,1.9-2,3.4
				c0,2.1,1.7,3.8,3.8,3.8c2.1,0,3.8-1.7,3.8-3.8c0-1.5-0.8-2.7-2-3.4V44.9l22.9-16c0.5-0.3,0.8-0.9,0.8-1.4V16.6
				c0-1-0.8-1.8-1.8-1.8c-1,0-1.8,0.8-1.8,1.8v9.9l-22.9,16C25,42.9,24.7,43.4,24.7,44z"/>
			
				<linearGradient id="SVGID_00000169522894779113773150000016263375734680058551_" gradientUnits="userSpaceOnUse" x1="50.2137" y1="15.8046" x2="50.2137" y2="84.8486">
				<stop  offset="0" style="stop-color:#00ABAF"/>
				<stop  offset="0.2353" style="stop-color:#0094B5"/>
				<stop  offset="0.4756" style="stop-color:#0080BA"/>
				<stop  offset="1" style="stop-color:#774896"/>
			</linearGradient>
			<path style="fill:url(#SVGID_00000169522894779113773150000016263375734680058551_);" d="M52.1,48.9l-5.8,4.1
				c-0.8,0.6-1,1.7-0.4,2.5c0.3,0.5,0.9,0.8,1.4,0.8c0.4,0,0.7-0.1,1-0.3l5.8-4.1c0.8-0.6,1-1.7,0.4-2.5
				C54,48.5,52.9,48.3,52.1,48.9z"/>
			
				<linearGradient id="SVGID_00000109031981224655672520000003129181270505999521_" gradientUnits="userSpaceOnUse" x1="33.1614" y1="15.8048" x2="33.1614" y2="84.8485">
				<stop  offset="0" style="stop-color:#29B2B2"/>
				<stop  offset="0.2713" style="stop-color:#1092B4"/>
				<stop  offset="0.4756" style="stop-color:#017EB5"/>
				<stop  offset="1" style="stop-color:#704B98"/>
			</linearGradient>
			<path style="fill:url(#SVGID_00000109031981224655672520000003129181270505999521_);" d="M63.3,59.1c-0.6-0.8-1.7-1-2.5-0.4
				L33.2,78L5.6,58.7c-0.8-0.6-1.9-0.4-2.5,0.4c-0.6,0.8-0.4,1.9,0.4,2.5L30,80.2l-7.8,5.4c-0.5-0.3-1.1-0.4-1.8-0.4
				c-2.1,0-3.9,1.7-3.9,3.9s1.7,3.9,3.9,3.9s3.9-1.7,3.9-3.9c0-0.2,0-0.3,0-0.5l8.8-6.2l8.8,6.2c0,0.2,0,0.3,0,0.5
				c0,2.1,1.7,3.9,3.9,3.9c2.1,0,3.9-1.7,3.9-3.9s-1.7-3.9-3.9-3.9c-0.6,0-1.2,0.2-1.8,0.4l-7.8-5.4l26.5-18.6
				C63.6,61.1,63.8,59.9,63.3,59.1z"/>
			
				<linearGradient id="SVGID_00000036209599592123407000000000385498066575663287_" gradientUnits="userSpaceOnUse" x1="16.1058" y1="15.8046" x2="16.1058" y2="84.8487">
				<stop  offset="0" style="stop-color:#00ABAF"/>
				<stop  offset="0.2353" style="stop-color:#0094B5"/>
				<stop  offset="0.4756" style="stop-color:#0080BA"/>
				<stop  offset="1" style="stop-color:#774896"/>
			</linearGradient>
			<path style="fill:url(#SVGID_00000036209599592123407000000000385498066575663287_);" d="M14.2,17.3l5.8-4.1
				c0.8-0.6,1-1.7,0.4-2.5C20.1,10.2,19.6,10,19,10c-0.4,0-0.7,0.1-1,0.3l-5.8,4.1c-0.8,0.6-1,1.7-0.4,2.5
				C12.3,17.6,13.4,17.8,14.2,17.3z"/>
			
				<linearGradient id="SVGID_00000165232573117375899920000003962305190699628445_" gradientUnits="userSpaceOnUse" x1="29.0626" y1="15.8046" x2="29.0626" y2="84.8485">
				<stop  offset="0" style="stop-color:#00ABAF"/>
				<stop  offset="0.2353" style="stop-color:#0094B5"/>
				<stop  offset="0.4756" style="stop-color:#0080BA"/>
				<stop  offset="1" style="stop-color:#774896"/>
			</linearGradient>
			<path style="fill:url(#SVGID_00000165232573117375899920000003962305190699628445_);" d="M38.1,11.5v9.7l-22.9,16
				c-0.5,0.3-0.8,0.9-0.8,1.4v10.8c0,1,0.8,1.8,1.8,1.8c1,0,1.8-0.8,1.8-1.8v-9.9l22.9-16c0.5-0.3,0.8-0.9,0.8-1.4V11.5
				c1.2-0.6,2-1.9,2-3.4c0-2.1-1.7-3.8-3.8-3.8c-2.1,0-3.8,1.7-3.8,3.8C36.1,9.6,36.9,10.8,38.1,11.5z"/>
			
				<linearGradient id="SVGID_00000088849002776762980300000007103764401334602656_" gradientUnits="userSpaceOnUse" x1="19.111" y1="15.8046" x2="19.111" y2="84.8486">
				<stop  offset="0" style="stop-color:#00ABAF"/>
				<stop  offset="0.2353" style="stop-color:#0094B5"/>
				<stop  offset="0.4756" style="stop-color:#0080BA"/>
				<stop  offset="1" style="stop-color:#774896"/>
			</linearGradient>
			<path style="fill:url(#SVGID_00000088849002776762980300000007103764401334602656_);" d="M10.6,33.9c2.1,0,3.8-1.7,3.8-3.8
				c0-0.2,0-0.3,0-0.5l16.2-11.4c0.5-0.3,0.8-0.9,0.8-1.4V6.1c0-1-0.8-1.8-1.8-1.8c-1,0-1.8,0.8-1.8,1.8v9.8L12.4,26.7
				c-0.5-0.3-1.1-0.4-1.8-0.4c-2.1,0-3.8,1.7-3.8,3.8C6.8,32.2,8.5,33.9,10.6,33.9z"/>
		</g>
	</g>
</g>
</svg>
